<svg xmlns="http://www.w3.org/2000/svg" viewBox="0 0 32 32"><path d="M18.9 30.6C11.5 33.2 4.7 32 3.2 27.8c-.5-1.5-.2-3.2.8-4.9.5-.8.5-2.1.2-3L2.8 16c-.9-2.6-.7-5.2.3-7.5.7-1.7 2-3.1 3.5-4.1l-.4-1c-.4-1.1.2-2.2 1.3-2.6L9.4.1c1.1-.4 2.2.2 2.6 1.3l.4 1c2-.2 4.1.3 5.9 1.4 1.9 1.2 3.5 3.1 4.3 5.4l1.4 3.9c.3.8 1.2 1.9 2 2.2 1.8.7 3 1.8 3.6 3.4 1.4 4.2-3.2 9.3-10.7 11.9zm7.3-10.8c-.6-1.7-5.2-2.8-11.3-.7-6.1 2.1-9 5.8-8.4 7.5.6 1.7 5.2 2.8 11.3.7 6.1-2.1 9-5.8 8.4-7.5zm-7.2.8l.1.8c0 1.9-1.1 3.6-2.7 4.4-.6.3-1.3.6-2.1.6h-.1c-1.6 0-2.9-.8-3.9-1.9-.1-.2-.1-.5.1-.6 1.1-.9 2.8-2 5.3-2.8 1-.3 2-.6 2.9-.8.1-.1.3.1.4.3z"/></svg>