<svg xmlns="http://www.w3.org/2000/svg" viewBox="0 0 32 32"><path d="M28.9 10.6c-.1-1.4-.3-2.3-.6-3.2-.3-.9-.8-1.6-1.5-2.3-.7-.7-1.4-1.2-2.3-1.5-.8-.3-1.8-.5-3.2-.6H16s-4 0-5.4.1c-1.3 0-2.3.3-3.1.6-.9.3-1.6.8-2.3 1.5-.7.7-1.2 1.4-1.5 2.3-.3.8-.5 1.8-.6 3.2C3 12 3 12.5 3 16s0 4 .1 5.4c.1 1.4.3 2.3.6 3.2.3.9.8 1.6 1.5 2.3.7.7 1.4 1.2 2.3 1.5.8.3 1.8.5 3.2.6H16s4 0 5.4-.1c1.4-.1 2.3-.3 3.2-.6.9-.3 1.6-.8 2.3-1.5.7-.7 1.2-1.4 1.5-2.3.3-.8.5-1.8.6-3.2V16s0-4-.1-5.4zM16 22.7c-3.7 0-6.7-3-6.7-6.7s3-6.7 6.7-6.7 6.7 3 6.7 6.7-3 6.7-6.7 6.7zm6.9-12.1c-.9 0-1.6-.7-1.6-1.6 0-.9.7-1.6 1.6-1.6.9 0 1.6.7 1.6 1.6 0 .9-.7 1.6-1.6 1.6zM20.3 16c0 2.4-1.9 4.3-4.3 4.3s-4.3-1.9-4.3-4.3 1.9-4.3 4.3-4.3 4.3 1.9 4.3 4.3z"/></svg>